<?xml version="1.0" standalone="no"?>
<!DOCTYPE svg PUBLIC "-//W3C//DTD SVG 20010904//EN"
 "http://www.w3.org/TR/2001/REC-SVG-20010904/DTD/svg10.dtd">
<svg version="1.0" xmlns="http://www.w3.org/2000/svg"
 width="500.000000pt" height="500.000000pt" viewBox="0 0 500.000000 500.000000"
 preserveAspectRatio="xMidYMid meet">

<g transform="translate(0.000000,500.000000) scale(0.100000,-0.100000)"
fill="#000000" stroke="none">
<path d="M2285 4868 c-420 -38 -861 -208 -1204 -463 -118 -87 -330 -290 -418
-400 -350 -434 -534 -949 -534 -1495 0 -214 11 -321 52 -513 94 -433 302 -823
608 -1140 208 -216 395 -354 654 -482 352 -174 665 -247 1057 -247 392 0 712
75 1060 248 254 127 439 263 640 470 359 371 589 848 655 1356 18 147 21 433
5 565 -53 431 -209 820 -472 1173 -93 125 -337 367 -464 462 -473 351 -1062
519 -1639 466z m-175 -1423 c7 -8 18 -15 26 -15 18 0 34 -32 34 -70 0 -18 4
-29 10 -25 6 4 10 -9 10 -32 0 -69 11 -111 31 -116 16 -4 17 -1 12 27 -4 17
-7 42 -8 56 0 14 -3 27 -7 30 -3 3 -9 25 -13 50 l-7 46 46 22 c64 32 108 19
189 -56 166 -153 277 -307 277 -383 0 -38 -52 -96 -98 -109 -45 -12 -124 -13
-174 -1 -22 5 -40 5 -46 -1 -18 -18 -76 -5 -89 21 -6 13 -19 28 -27 33 -13 7
-16 3 -16 -25 0 -19 -6 -40 -14 -46 -34 -29 -71 24 -102 147 l-19 73 -35 -3
-35 -3 -12 -74 c-14 -80 -22 -101 -24 -55 -1 23 -3 20 -10 -15 -4 -24 -14 -49
-20 -57 -18 -22 -57 -17 -75 11 -14 21 -15 34 -5 87 6 35 14 72 16 83 4 15 -2
24 -25 37 -19 11 -30 25 -30 38 0 24 51 80 73 80 8 0 18 19 25 48 36 157 101
247 142 197z m714 -30 c152 -66 296 -173 296 -219 0 -43 -15 -51 -86 -48 -36
2 -65 0 -63 -5 2 -4 23 -47 47 -94 45 -89 64 -166 43 -178 -6 -4 -24 -6 -40
-3 -25 3 -32 13 -61 85 -72 177 -92 207 -140 207 -18 0 -19 -9 -17 -141 2
-123 0 -143 -15 -152 -22 -15 -58 16 -58 50 0 13 -7 72 -16 130 -15 96 -20
109 -50 140 -28 28 -32 38 -24 54 6 10 15 19 20 19 10 0 6 114 -5 141 -9 24
21 49 58 49 18 0 67 -16 111 -35z m5 -409 c1 -92 -6 -62 -12 49 -3 67 -2 85 3
55 5 -25 9 -72 9 -104z m128 -187 c37 -23 53 -53 53 -100 0 -18 4 -28 10 -24
6 4 10 -17 10 -55 0 -55 2 -61 25 -72 33 -15 43 -54 22 -90 -9 -16 -14 -34
-12 -41 3 -6 11 -48 19 -92 14 -83 8 -125 -18 -125 -31 0 -64 63 -96 188 -10
39 -13 42 -44 42 -32 0 -34 -1 -45 -57 -6 -31 -11 -67 -11 -81 0 -16 -4 -22
-14 -19 -9 4 -16 -4 -20 -23 -6 -33 -47 -50 -75 -33 -9 6 -26 7 -38 2 -26 -10
-47 11 -61 62 -10 38 -159 309 -169 309 -3 0 -3 -76 0 -170 l6 -169 -29 -21
c-15 -11 -33 -20 -38 -20 -20 0 -42 32 -42 61 0 16 -6 32 -14 35 -19 7 -150
-29 -256 -71 -128 -50 -125 -49 -153 -19 -22 23 -26 41 -36 153 -7 69 -17 153
-22 185 -13 74 -6 104 29 118 15 6 101 30 191 54 184 48 211 47 211 -5 0 -29
-3 -31 -72 -51 -40 -12 -115 -35 -165 -52 -83 -28 -93 -34 -93 -56 0 -15 4
-22 13 -19 151 64 252 93 290 83 13 -3 30 -18 38 -32 13 -26 14 -23 19 57 4
64 10 89 25 107 47 54 100 5 204 -191 47 -90 49 -83 20 66 -21 103 -21 108 -4
127 22 25 53 26 63 3 4 -10 14 -18 22 -18 11 0 19 -24 30 -97 8 -54 19 -98 25
-98 24 1 36 20 56 89 22 83 42 126 72 159 25 27 31 27 74 1z m-855 -65 c-73
-18 -142 -39 -153 -45 -11 -6 -23 -9 -25 -6 -13 13 234 86 286 86 14 -1 -35
-16 -108 -35z m1052 -580 c4 -15 0 -41 -10 -64 -16 -36 -22 -40 -73 -50 -31
-6 -66 -13 -79 -16 l-23 -5 1 -182 c1 -100 1 -191 1 -202 -1 -26 -57 -52 -80
-38 -38 24 -42 51 -36 236 l6 177 -43 0 c-24 0 -58 4 -75 9 -41 12 -46 -2 -41
-102 3 -63 1 -72 -15 -75 -26 -5 -46 15 -53 54 -8 43 -68 97 -132 118 l-45 16
97 -100 c101 -104 135 -160 136 -222 0 -85 -93 -132 -205 -103 -55 15 -57 15
-76 -7 l-19 -23 -25 30 c-24 29 -24 29 -45 10 -18 -17 -25 -17 -74 -5 -52 12
-102 10 -297 -17 -24 -3 -39 0 -44 8 -5 7 -9 56 -10 108 -1 53 -10 170 -19
260 -19 188 -17 199 47 187 32 -6 36 -11 46 -54 l10 -47 -4 45 c-4 37 -3 41 6
21 9 -24 21 -130 34 -312 l7 -87 86 5 c48 3 89 7 91 9 2 1 2 62 2 134 l-2 131
30 29 c44 45 91 36 91 -18 0 -13 4 -21 8 -18 16 10 50 -24 57 -57 30 -144 39
-170 67 -203 28 -32 34 -34 89 -34 107 0 93 32 -95 224 -75 76 -136 142 -136
147 0 4 -16 5 -34 2 -84 -13 -112 24 -54 72 30 25 35 26 118 22 73 -4 98 -10
161 -40 41 -20 84 -44 97 -53 21 -16 22 -16 22 7 0 13 4 30 9 37 16 26 103 42
230 43 104 1 206 8 277 17 7 1 15 -10 18 -24z m-924 -564 c0 -6 -41 -10 -102
-10 -57 0 -121 -3 -143 -7 -22 -3 -37 -3 -34 1 18 19 279 34 279 16z"/>
<path d="M2077 3274 c-3 -18 -9 -43 -13 -58 -5 -22 -3 -26 15 -26 17 0 21 6
20 33 -1 17 -4 43 -8 57 -7 25 -7 25 -14 -6z"/>
<path d="M2231 3264 c0 -11 3 -14 6 -6 3 7 2 16 -1 19 -3 4 -6 -2 -5 -13z"/>
<path d="M2350 3258 c0 -29 50 -272 57 -279 29 -25 178 -37 206 -16 16 11 14
17 -20 76 -57 95 -243 263 -243 219z"/>
<path d="M2241 3224 c0 -11 3 -14 6 -6 3 7 2 16 -1 19 -3 4 -6 -2 -5 -13z"/>
<path d="M2251 3184 c0 -11 3 -14 6 -6 3 7 2 16 -1 19 -3 4 -6 -2 -5 -13z"/>
<path d="M2261 3150 c-1 -8 4 -33 10 -55 14 -56 19 -68 23 -64 3 2 -4 33 -14
69 -10 36 -19 58 -19 50z"/>
<path d="M2237 3093 c-13 -12 -7 -43 8 -43 9 0 15 9 15 25 0 24 -10 32 -23 18z"/>
<path d="M2760 3329 c0 -5 4 -9 9 -9 5 0 12 -13 16 -30 7 -34 8 -34 34 -18 15
9 24 8 44 -4 28 -19 103 -36 94 -21 -8 13 -124 71 -164 82 -20 6 -33 6 -33 0z"/>
<path d="M2691 2734 c0 -11 3 -14 6 -6 3 7 2 16 -1 19 -3 4 -6 -2 -5 -13z"/>
<path d="M2701 2684 c0 -11 3 -14 6 -6 3 7 2 16 -1 19 -3 4 -6 -2 -5 -13z"/>
<path d="M2916 2662 c-3 -5 -9 -27 -15 -50 -8 -40 -8 -42 15 -42 22 0 23 2 17
48 -7 52 -8 57 -17 44z"/>
<path d="M2357 2557 c-3 -8 -40 -21 -85 -30 -44 -9 -117 -30 -161 -48 -79 -31
-81 -33 -81 -66 0 -33 0 -33 28 -19 53 27 256 97 284 98 26 1 28 4 28 40 0 39
-4 48 -13 25z"/>
<path d="M2093 2503 c-12 -2 -27 -11 -33 -19 -10 -11 -5 -11 26 2 57 24 58 27
7 17z"/>
<path d="M2852 2350 c0 -14 2 -19 5 -12 2 6 2 18 0 25 -3 6 -5 1 -5 -13z"/>
<path d="M2472 2335 c0 -16 2 -22 5 -12 2 9 2 23 0 30 -3 6 -5 -1 -5 -18z"/>
<path d="M2030 2240 c-8 -5 -10 -10 -5 -10 6 0 17 5 25 10 8 5 11 10 5 10 -5
0 -17 -5 -25 -10z"/>
<path d="M2758 2163 c7 -3 16 -2 19 1 4 3 -2 6 -13 5 -11 0 -14 -3 -6 -6z"/>
<path d="M1881 2113 c1 -43 2 -45 9 -18 11 44 11 65 0 65 -5 0 -9 -21 -9 -47z"/>
<path d="M2200 2121 c0 -6 4 -13 10 -16 6 -3 7 1 4 9 -7 18 -14 21 -14 7z"/>
<path d="M2728 2063 c7 -3 16 -2 19 1 4 3 -2 6 -13 5 -11 0 -14 -3 -6 -6z"/>
<path d="M1893 2005 c0 -22 2 -30 4 -17 2 12 2 30 0 40 -3 9 -5 -1 -4 -23z"/>
<path d="M2233 1910 c0 -41 2 -58 4 -37 2 20 2 54 0 75 -2 20 -4 3 -4 -38z"/>
</g>
</svg>
